<svg width="226" height="284" viewBox="0 0 226 284" fill="none" xmlns="http://www.w3.org/2000/svg">
<path d="M118.604 25.4424C128.644 35.7024 137.661 46.7625 145.654 58.6225C145.865 58.9394 146.148 59.2035 146.479 59.3942C146.81 59.585 147.181 59.6973 147.564 59.7224C162.654 60.8124 176.164 66.1124 189.364 73.5124C191.657 74.6924 193.731 76.3591 195.584 78.5124C199.537 83.3324 201.977 88.7791 202.904 94.8524C202.957 95.2058 203.154 95.4425 203.494 95.5625C206.387 96.5958 209.144 97.9924 211.764 99.7524C216.184 102.719 220.744 105.532 225.444 108.192C225.521 108.234 225.585 108.296 225.632 108.37C225.678 108.444 225.704 108.529 225.708 108.616C225.712 108.704 225.694 108.791 225.655 108.869C225.615 108.947 225.557 109.014 225.484 109.062C217.717 114.222 209.621 119.086 201.194 123.652C201.128 123.689 201.072 123.74 201.029 123.801C200.985 123.862 200.956 123.932 200.944 124.006C200.931 124.08 200.936 124.156 200.957 124.228C200.977 124.3 201.014 124.367 201.064 124.422L223.184 148.552C213.217 149.139 203.621 149.059 194.394 148.312C189.474 143.019 184.821 138.859 180.434 135.832C166.374 126.132 146.364 123.272 129.124 126.032C122.877 127.026 116.487 128.052 109.954 129.112C106.747 129.639 103.391 129.826 99.884 129.672C96.9374 129.546 93.7807 127.946 90.414 124.872C98.814 115.139 107.301 105.692 115.874 96.5324C118.564 93.6624 121.614 91.2824 124.744 88.9025C125.611 88.2424 125.497 87.8824 124.404 87.8224C122.137 87.6958 119.974 87.5691 117.914 87.4424C108.107 86.8491 98.8574 83.9925 90.164 78.8725C82.214 74.1925 78.384 69.0324 72.784 60.8924C72.284 60.1658 72.1307 58.4291 72.324 55.6824C73.004 39.3291 76.684 23.6658 83.364 8.69243C84.704 5.69243 86.2573 2.84577 88.024 0.152437C88.1373 -0.0142301 88.2807 -0.0442264 88.454 0.0624403C99.4673 7.32911 109.517 15.7891 118.604 25.4424ZM169.703 109.864C170.692 109.67 171.633 109.276 172.47 108.705C173.308 108.134 174.026 107.397 174.584 106.536C175.142 105.676 175.528 104.708 175.722 103.688C175.915 102.668 175.911 101.617 175.71 100.594C175.305 98.5274 174.122 96.7014 172.422 95.5175C170.722 94.3336 168.644 93.8888 166.645 94.2809C165.656 94.4751 164.715 94.8689 163.878 95.4399C163.04 96.0108 162.322 96.7477 161.764 97.6085C161.206 98.4693 160.82 99.4372 160.626 100.457C160.433 101.476 160.437 102.528 160.638 103.551C161.043 105.617 162.226 107.443 163.926 108.627C165.626 109.811 167.704 110.256 169.703 109.864Z" fill="#FEFEFE"/>
<path d="M178.934 48.4024C180.821 54.2091 182.934 59.8524 185.274 65.3324C186.394 67.9524 187.757 70.6791 189.364 73.5124C176.164 66.1124 162.654 60.8124 147.564 59.7224C147.181 59.6973 146.81 59.585 146.479 59.3942C146.148 59.2035 145.865 58.9394 145.654 58.6224C137.661 46.7624 128.644 35.7024 118.604 25.4424L128.994 4.41242C129.139 4.1183 129.378 3.88143 129.674 3.73995C129.97 3.59846 130.304 3.56058 130.624 3.63242C132.471 4.03908 134.291 4.73575 136.084 5.72241C153.877 15.5024 167.687 29.2891 177.514 47.0824C177.821 47.6357 178.294 48.0758 178.934 48.4024Z" fill="url(#paint0_linear_2_51)"/>
<path d="M72.324 55.6824C72.1307 58.4291 72.284 60.1658 72.784 60.8924C78.384 69.0324 82.214 74.1924 90.164 78.8724C98.8573 83.9924 108.107 86.8491 117.914 87.4424C119.974 87.5691 122.137 87.6958 124.404 87.8224C125.497 87.8824 125.611 88.2424 124.744 88.9024C121.614 91.2824 118.564 93.6624 115.874 96.5324C107.301 105.692 98.814 115.139 90.414 124.872C84.7807 119.386 80.764 112.989 78.364 105.682C73.164 89.8224 71.1507 73.1558 72.324 55.6824Z" fill="#A8AAA9"/>
<path d="M13.873 270V87.5H51.3731V270H13.873ZM138.814 273.5C100.814 273.5 72.5645 244.75 72.5645 207.5C72.5645 170.25 100.814 141.5 138.814 141.5C163.064 141.5 184.564 154.25 195.314 173.5L162.564 192.5C158.314 183.75 149.314 178.5 138.314 178.5C122.064 178.5 110.064 190.25 110.064 207.5C110.064 224.75 122.064 236.5 138.314 236.5C149.314 236.5 158.564 231.25 162.564 222.5L195.314 241.25C184.564 260.75 163.314 273.5 138.814 273.5Z" fill="url(#paint1_linear_2_51)"/>
<defs>
<linearGradient id="paint0_linear_2_51" x1="222.654" y1="30.1724" x2="31.654" y2="50.6724" gradientUnits="userSpaceOnUse">
<stop offset="0.3125" stop-color="#15A88E"/>
<stop offset="0.987755" stop-color="#46C44B"/>
</linearGradient>
<linearGradient id="paint1_linear_2_51" x1="236.5" y1="135" x2="5.39479e-06" y2="184" gradientUnits="userSpaceOnUse">
<stop stop-color="#04D0B5"/>
<stop offset="1" stop-color="#8EFF93"/>
</linearGradient>
</defs>
</svg>
