<svg width="115" height="81" viewBox="0 0 115 81" fill="none" xmlns="http://www.w3.org/2000/svg">
<path d="M2.00244 79.0036V52.978H7.34631V79.0036H2.00244ZM16.0306 72.2298C16.7075 74.0837 18.3463 74.7254 20.3057 74.7254C21.7664 74.7254 23.0133 74.155 23.7258 73.3706L28.0009 75.8306C26.2552 78.2549 23.6189 79.5027 20.2345 79.5027C14.1425 79.5027 10.3661 75.4028 10.3661 70.0907C10.3661 64.7786 14.2137 60.6787 19.8426 60.6787C25.0439 60.6787 28.8915 64.7073 28.8915 70.0907C28.8915 70.8394 28.8203 71.5524 28.6778 72.2298H16.0306ZM15.9237 68.2368H23.5833C23.0133 66.169 21.4101 65.4204 19.8069 65.4204C17.7763 65.4204 16.4225 66.4186 15.9237 68.2368ZM36.2856 66.383C36.2856 68.4151 45.0495 67.0603 45.0495 73.6558C45.0495 77.7558 41.4869 79.5027 37.6394 79.5027C34.0768 79.5027 31.3692 78.1479 29.9798 75.2602L34.6112 72.622C35.0743 73.9767 36.0718 74.7254 37.6394 74.7254C38.9219 74.7254 39.5632 74.3332 39.5632 73.6202C39.5632 71.6594 30.7992 72.6933 30.7992 66.5256C30.7992 62.6396 34.0768 60.6787 37.7819 60.6787C40.6676 60.6787 43.2326 61.9622 44.7289 64.4934L40.1688 66.9534C39.67 66.0264 38.9575 65.3847 37.7819 65.3847C36.8556 65.3847 36.2856 65.7412 36.2856 66.383ZM51.8719 66.383C51.8719 68.4151 60.6358 67.0603 60.6358 73.6558C60.6358 77.7558 57.0732 79.5027 53.2256 79.5027C49.6631 79.5027 46.9555 78.1479 45.5661 75.2602L50.1974 72.622C50.6606 73.9767 51.6581 74.7254 53.2256 74.7254C54.5082 74.7254 55.1494 74.3332 55.1494 73.6202C55.1494 71.6594 46.3855 72.6933 46.3855 66.5256C46.3855 62.6396 49.6631 60.6787 53.3681 60.6787C56.2538 60.6787 58.8189 61.9622 60.3152 64.4934L55.7551 66.9534C55.2563 66.0264 54.5438 65.3847 53.3681 65.3847C52.4419 65.3847 51.8719 65.7412 51.8719 66.383ZM71.6801 79.5027C66.265 79.5027 62.2392 75.4028 62.2392 70.0907C62.2392 64.7786 66.265 60.6787 71.6801 60.6787C75.1358 60.6787 78.1996 62.497 79.7315 65.2421L75.0645 67.9516C74.4589 66.7038 73.1764 65.9551 71.6088 65.9551C69.2931 65.9551 67.5831 67.6308 67.5831 70.0907C67.5831 72.5507 69.2931 74.2263 71.6088 74.2263C73.1764 74.2263 74.4945 73.4776 75.0645 72.2298L79.7315 74.9036C78.1996 77.6845 75.1714 79.5027 71.6801 79.5027ZM94.4663 61.1779H99.8102V79.0036H94.4663V77.3279C93.2907 78.6827 91.545 79.5027 89.1581 79.5027C84.4911 79.5027 80.6435 75.4028 80.6435 70.0907C80.6435 64.7786 84.4911 60.6787 89.1581 60.6787C91.545 60.6787 93.2907 61.4987 94.4663 62.8535V61.1779ZM90.2268 74.4402C92.685 74.4402 94.4663 72.7646 94.4663 70.0907C94.4663 67.4168 92.685 65.7412 90.2268 65.7412C87.7687 65.7412 85.9874 67.4168 85.9874 70.0907C85.9874 72.7646 87.7687 74.4402 90.2268 74.4402ZM109.075 64.3508C109.787 61.9622 112.174 60.8213 114.418 60.8213V66.8821C112.21 66.5256 109.075 67.4168 109.075 70.9463V79.0036H103.731V61.1779H109.075V64.3508Z" fill="#FEFEFE"/>
<path d="M42.6931 3.62823C44.1238 5.09136 45.4086 6.6686 46.5478 8.3599C46.5779 8.40509 46.6181 8.44275 46.6654 8.46995C46.7125 8.49716 46.7654 8.51317 46.82 8.51675C48.9704 8.67219 50.8956 9.428 52.7766 10.4833C53.1034 10.6516 53.3988 10.8892 53.663 11.1963C54.2263 11.8837 54.574 12.6604 54.7061 13.5265C54.7137 13.5769 54.7417 13.6106 54.7902 13.6278C55.2024 13.7751 55.5953 13.9743 55.9687 14.2253C56.5985 14.6483 57.2484 15.0495 57.9181 15.4288C57.929 15.4348 57.9382 15.4436 57.9448 15.4542C57.9513 15.4647 57.9552 15.4768 57.9557 15.4893C57.9563 15.5018 57.9536 15.5142 57.9481 15.5253C57.9425 15.5365 57.9341 15.546 57.9238 15.5529C56.817 16.2887 55.6632 16.9823 54.4624 17.6335C54.453 17.6387 54.445 17.646 54.4388 17.6547C54.4326 17.6634 54.4285 17.6734 54.4268 17.684C54.4249 17.6945 54.4255 17.7053 54.4285 17.7156C54.4315 17.7259 54.4368 17.7354 54.4439 17.7433L57.5961 21.1844C56.1757 21.2681 54.8081 21.2567 53.4934 21.1501C52.7923 20.3953 52.1291 19.8021 51.5041 19.3704C49.5005 17.9871 46.649 17.5793 44.1922 17.9729C43.302 18.1146 42.3914 18.2609 41.4604 18.4121C41.0034 18.4873 40.5251 18.5139 40.0254 18.492C39.6055 18.474 39.1556 18.2458 38.6759 17.8075C39.873 16.4195 41.0822 15.0723 42.3041 13.7661C42.6874 13.3568 43.122 13.0174 43.5681 12.678C43.6915 12.5839 43.6754 12.5325 43.5196 12.524C43.1966 12.5059 42.8883 12.4878 42.5948 12.4698C41.1972 12.3852 39.8791 11.9778 38.6403 11.2477C37.5074 10.5803 36.9616 9.84441 36.1636 8.6836C36.0924 8.57998 36.0704 8.33232 36.0981 7.94062C36.195 5.60855 36.7194 3.37488 37.6713 1.23959C37.8622 0.811773 38.0835 0.405823 38.3354 0.0217384C38.3515 -0.0020293 38.3718 -0.00630694 38.3966 0.00890434C39.966 1.04517 41.3982 2.25161 42.6931 3.62823ZM49.9747 15.6672C50.1158 15.6396 50.2497 15.5834 50.3692 15.5019C50.4884 15.4205 50.5909 15.3154 50.6704 15.1926C50.7498 15.07 50.8049 14.932 50.8324 14.7865C50.8601 14.641 50.8595 14.4912 50.8309 14.3453C50.7732 14.0506 50.6046 13.7902 50.3623 13.6213C50.1201 13.4525 49.824 13.3891 49.5391 13.445C49.398 13.4727 49.2641 13.5288 49.1446 13.6103C49.0254 13.6917 48.923 13.7968 48.8435 13.9195C48.764 14.0423 48.7089 14.1803 48.6814 14.3257C48.6539 14.471 48.6544 14.6211 48.6829 14.767C48.7408 15.0616 48.9094 15.322 49.1516 15.4908C49.3939 15.6597 49.69 15.7231 49.9747 15.6672Z" fill="#FEFEFE"/>
<path d="M51.2903 6.9027C51.559 7.73077 51.8603 8.53553 52.1937 9.31701C52.3533 9.69064 52.5476 10.0795 52.7766 10.4835C50.8955 9.42824 48.9703 8.67243 46.8199 8.51699C46.7654 8.51341 46.7125 8.4974 46.6653 8.47019C46.618 8.44299 46.5778 8.40533 46.5478 8.36013C45.4086 6.66882 44.1238 5.09161 42.6931 3.62847L44.1737 0.629478C44.1942 0.587535 44.2284 0.553756 44.2706 0.53358C44.3126 0.513403 44.3603 0.508001 44.4059 0.518245C44.669 0.576237 44.9284 0.675587 45.184 0.81629C47.7196 2.21097 49.6875 4.17703 51.0879 6.71446C51.1315 6.79336 51.1991 6.85612 51.2903 6.9027Z" fill="#FEFEFE"/>
<path d="M94.4146 38.1942C94.3356 38.315 94.2611 38.2465 94.1908 37.9888C94.1623 37.8853 94.129 37.7969 94.0911 37.7236C93.6422 36.8651 93.189 35.8697 92.7387 35.1125C91.2439 32.5912 89.1989 30.2639 86.7693 28.7195C83.7501 26.8 80.4493 26.0171 76.8667 26.3708C74.7691 26.5781 72.9066 27.098 71.2792 27.9309C68.695 29.2552 66.7185 31.2417 65.3496 33.8903C64.6209 35.3021 64.1897 36.848 64.0557 38.5279C63.9777 39.5129 63.9497 40.5007 63.9716 41.4912L63.5056 41.487C63.2728 41.2598 62.7697 40.8248 61.9965 40.1821C61.3714 39.6622 60.0556 38.4229 58.0492 36.4644C54.9797 33.4682 51.8304 30.4806 48.3305 28.0264C46.2058 26.5362 43.7633 25.2456 41.4504 24.5283C37.2181 23.2163 32.8679 23.1436 28.4 24.3101C27.7274 24.4861 27.0324 24.6852 26.3152 24.9076C26.1916 24.9457 26.0852 24.9361 25.996 24.8791C25.9873 24.8735 25.9803 24.866 25.9754 24.8569C25.9706 24.8479 25.9682 24.8377 25.9683 24.8273C25.9685 24.8171 25.9712 24.8068 25.9763 24.7977C25.9813 24.7885 25.9886 24.7807 25.9974 24.775C26.2354 24.6253 26.4335 24.4199 26.6814 24.2773C28.8255 23.0395 31.1636 22.2433 33.6954 21.8887C33.8279 21.8701 33.959 21.8059 34.093 21.776C34.1033 21.7739 34.1128 21.7689 34.1204 21.7616C34.1279 21.7542 34.1332 21.7449 34.1357 21.7346C34.1443 21.7024 34.1372 21.679 34.1144 21.6648C34.0916 21.6497 34.0653 21.6429 34.036 21.6448C33.7111 21.6696 33.3728 21.689 33.0214 21.7033C32.3445 21.7318 31.6875 21.6477 31.0007 21.642C29.2393 21.6291 27.2286 21.0359 25.8934 20.2786C22.5916 18.4091 20.4155 15.0621 20.2616 11.2161C20.2606 11.1786 20.2749 11.1417 20.3015 11.1134C20.3452 11.0678 20.36 11.0074 20.3457 10.9323C20.3219 10.8163 20.3129 10.6514 20.3186 10.4375C20.5353 9.37078 20.8734 8.35068 21.3333 7.37715C21.339 7.3652 21.3477 7.35488 21.3583 7.34712C21.3692 7.33936 21.3817 7.33441 21.3948 7.3327C21.4081 7.33101 21.4213 7.33262 21.4337 7.33739C21.4461 7.34216 21.4571 7.34994 21.4658 7.36004C23.0997 9.25955 25.1214 10.5207 27.5307 11.1434C28.5073 11.3972 29.5119 11.6268 30.5447 11.8322C31.8229 12.086 33.0955 12.5238 34.093 13.3409C34.7504 13.88 35.184 14.4823 35.394 15.1477C35.4073 15.9387 35.4154 16.695 35.4183 17.4165C35.4226 18.8554 35.0022 20.1745 34.673 21.5749C34.6671 21.5996 34.6671 21.6253 34.6731 21.6499C34.6791 21.6746 34.6908 21.6976 34.7072 21.717C34.7237 21.7364 34.7445 21.7518 34.768 21.7617C34.7915 21.7717 34.8171 21.7761 34.8426 21.7746C36.9877 21.634 39.1912 21.5631 41.4533 21.5621C41.6271 21.5621 41.7976 21.5346 41.9649 21.4794C42.0113 21.4633 42.0276 21.4315 42.0133 21.3838L41.9193 21.0886C42.1823 21.12 42.4427 21.1371 42.7002 21.14C46.2988 21.1866 49.8966 21.1899 53.4934 21.15C54.8081 21.2565 56.1757 21.2679 57.596 21.1842L73.0234 21.1186C73.1545 21.1186 73.1664 21.0811 73.059 21.0059C72.9715 20.9452 72.8756 20.8648 72.7712 20.7649C69.6105 17.7351 66.6568 14.7498 63.9103 11.8093C63.5427 11.4157 63.3218 11.2175 62.8644 11.2132C59.8043 11.1876 56.7372 11.1819 53.6629 11.1961C53.3987 10.8891 53.1033 10.6514 52.7766 10.4831C52.5476 10.0791 52.3533 9.69022 52.1937 9.31659C51.8603 8.53511 51.559 7.73034 51.2903 6.90228C55.2452 6.87281 59.1715 6.86139 63.0696 6.86805C63.9122 6.86901 64.5288 6.93318 64.9193 7.06057C65.5329 7.26117 66.0725 7.59868 66.5381 8.07307C68.876 10.4565 71.1096 12.723 73.2386 14.8725C74.3672 16.0125 75.1504 16.7648 75.5885 17.1299C76.5048 17.8971 77.4667 18.2052 78.6922 18.1353C81.0221 18.0041 83.3235 18.2465 85.3913 19.0551C88.0874 20.1095 90.3854 21.7646 92.2856 24.0206C92.2904 24.0265 92.2935 24.0334 92.2945 24.041C92.2955 24.0484 92.2944 24.056 92.2913 24.063C92.2881 24.0698 92.2831 24.0757 92.2767 24.0798C92.2705 24.0839 92.2632 24.0861 92.2556 24.0862L87.848 24.0848C87.8342 24.0849 87.8207 24.0882 87.8084 24.0945C87.7961 24.1006 87.7855 24.1096 87.7773 24.1206C87.7692 24.1314 87.7637 24.1441 87.7614 24.1575C87.7591 24.1708 87.76 24.1846 87.7639 24.1974C88.3496 26.0912 89.4512 28.2888 91.2439 29.2271C92.287 29.7748 93.7206 29.8717 94.7822 29.2485C94.7955 29.2408 94.8104 29.2361 94.8258 29.235C94.8412 29.2337 94.8567 29.2361 94.8711 29.2417C94.8855 29.2473 94.8984 29.2561 94.9089 29.2674C94.9194 29.2788 94.9273 29.2923 94.9318 29.307C95.8524 32.2689 95.6173 35.2779 94.4146 38.1942Z" fill="white"/>
<path d="M36.098 7.94043C36.0704 8.33211 36.0923 8.57977 36.1636 8.6834C36.9616 9.84421 37.5074 10.5801 38.6403 11.2475C39.8791 11.9776 41.1972 12.385 42.5947 12.4696C42.8883 12.4876 43.1965 12.5057 43.5196 12.5238C43.6753 12.5323 43.6914 12.5837 43.568 12.6778C43.122 13.0172 42.6874 13.3566 42.304 13.7659C41.0822 15.0721 39.8729 16.4193 38.6759 17.8073C37.873 17.0249 37.3008 16.1127 36.9587 15.0707C36.2177 12.809 35.9307 10.4322 36.098 7.94043Z" fill="#FEFEFE"/>
<path d="M20.3187 10.4375C20.313 10.6514 20.322 10.8164 20.3458 10.9323C20.36 11.0075 20.3452 11.0678 20.3016 11.1135C20.2749 11.1418 20.2607 11.1786 20.2617 11.2161C20.4156 15.0621 22.5916 18.4091 25.8934 20.2787C27.2287 21.0359 29.2394 21.6291 31.0007 21.642C31.6876 21.6477 32.3445 21.7318 33.0214 21.7033C33.3728 21.689 33.7111 21.6696 34.036 21.6448C34.0654 21.643 34.0916 21.6497 34.1144 21.6648C34.1372 21.679 34.1443 21.7024 34.1358 21.7347C34.1332 21.7449 34.128 21.7543 34.1204 21.7616C34.1129 21.7689 34.1033 21.7739 34.093 21.776C33.9591 21.806 33.828 21.8701 33.6955 21.8887C31.1636 22.2433 28.8256 23.0395 26.6815 24.2773C26.4335 24.4199 26.2354 24.6253 25.9974 24.775C25.9886 24.7807 25.9813 24.7886 25.9764 24.7977C25.9712 24.8068 25.9685 24.8171 25.9684 24.8274C25.9682 24.8378 25.9708 24.8479 25.9755 24.8569C25.9803 24.866 25.9873 24.8737 25.996 24.8791C26.0852 24.9362 26.1917 24.9457 26.3152 24.9076C27.0324 24.6852 27.7274 24.4861 28.4 24.3101C32.8679 23.1436 37.2181 23.2163 41.4505 24.5283C43.7633 25.2456 46.2058 26.5362 48.3305 28.0264C51.8304 30.4807 54.9797 33.4683 58.0492 36.4644C60.0557 38.4229 61.3714 39.6622 61.9966 40.1821C62.7698 40.8249 63.2728 41.2598 63.5057 41.487C59.0016 41.4566 54.5189 41.4513 50.0577 41.4713C49.3898 41.4741 48.9598 41.4324 48.768 41.3458C48.2379 41.1062 47.8816 40.5529 47.8033 39.9639C47.4175 37.0653 46.1539 34.6362 44.0127 32.6768C40.5427 29.501 35.8259 28.5883 31.3627 30.0999C27.5137 31.4048 24.4328 34.7688 23.5834 38.8274C23.4617 39.4064 23.3492 39.9973 23.2457 40.6C23.2087 40.8167 23.0776 41.0449 22.8766 41.1461C21.9361 41.621 20.9372 41.3472 20.6707 40.2506C20.0189 37.5696 20.0345 34.9157 20.7177 32.2889C21.508 29.2506 23.1777 26.8124 25.7267 24.9747C25.7585 24.952 25.7811 24.9188 25.7908 24.881C25.8004 24.8432 25.7964 24.8031 25.7794 24.7679C25.7318 24.6709 25.6634 24.5945 25.5742 24.5383C22.4609 22.5941 20.6393 19.7453 20.1092 15.9919C19.8422 14.0963 19.912 12.2448 20.3187 10.4375Z" fill="#FEFEFE"/>
<path d="M35.3941 15.1479C35.5936 15.6014 35.7968 16.1582 36.004 16.8179C36.1797 17.374 36.4319 17.9412 36.7607 18.5191C37.8594 20.45 39.9413 20.7181 41.9193 21.0889L42.0133 21.3841C42.0276 21.4317 42.0113 21.4635 41.9649 21.4796C41.7976 21.5348 41.6272 21.5623 41.4533 21.5623C39.1912 21.5633 36.9877 21.6342 34.8426 21.7748C34.8171 21.7764 34.7916 21.772 34.7681 21.762C34.7445 21.752 34.7237 21.7366 34.7072 21.7172C34.6908 21.6978 34.6791 21.6749 34.6731 21.6503C34.6672 21.6257 34.6672 21.5999 34.673 21.5752C35.0022 20.1748 35.4226 18.8557 35.4183 17.4168C35.4154 16.6952 35.4073 15.939 35.3941 15.1479Z" fill="#FEFEFE"/>
<path d="M94.4146 38.1944C94.3148 38.4788 94.0801 39.0887 93.7106 40.0242C93.5083 40.5347 93.2233 41.1194 92.6589 41.2848C91.7469 41.5515 90.8548 41.1037 90.7679 40.0898C90.5817 37.8974 89.779 35.8905 88.3596 34.069C84.5434 29.1719 78.1037 28.0339 72.623 30.7748C71.1638 31.5039 69.9035 32.5207 68.8424 33.8251C67.4848 35.4907 66.6293 37.51 66.2759 39.883C66.0935 41.1027 65.3254 41.6389 63.9716 41.4916C63.9497 40.5009 63.9778 39.5131 64.0557 38.5282C64.1897 36.8483 64.6209 35.3025 65.3496 33.8907C66.7185 31.2419 68.695 29.2555 71.2792 27.9312C72.9066 27.0984 74.7691 26.5783 76.8667 26.3711C80.4493 26.0174 83.7501 26.8004 86.7693 28.7198C89.199 30.2642 91.2439 32.5916 92.7387 35.1128C93.189 35.8701 93.6422 36.8655 94.0911 37.7239C94.129 37.7971 94.1623 37.8855 94.1908 37.989C94.2611 38.2467 94.3356 38.3152 94.4146 38.1944Z" fill="#FEFEFE"/>
<path d="M72.6044 33.2246C76.8681 30.4068 82.6025 30.933 86.1707 34.7134C87.9378 36.5863 88.8706 38.8347 88.9695 41.4587C89.2189 48.1269 83.7054 53.2593 77.1204 52.3809C67.728 51.1259 64.5673 38.5381 72.6044 33.2246ZM83.637 41.9507C83.637 40.5917 83.0975 39.2884 82.1373 38.3275C81.1772 37.3666 79.8748 36.8269 78.5169 36.8269C77.8444 36.8269 77.1787 36.9593 76.5575 37.2169C75.9363 37.4743 75.3719 37.8518 74.8963 38.3275C74.4209 38.8034 74.0437 39.3681 73.7865 39.9899C73.5292 40.6115 73.3968 41.2777 73.3968 41.9507C73.3968 42.6235 73.5292 43.2897 73.7865 43.9114C74.0437 44.5331 74.4209 45.0978 74.8963 45.5737C75.3719 46.0495 75.9363 46.4269 76.5575 46.6845C77.1787 46.9419 77.8444 47.0745 78.5169 47.0745C79.8748 47.0745 81.1772 46.5346 82.1373 45.5737C83.0975 44.6128 83.637 43.3096 83.637 41.9507Z" fill="#FEFEFE"/>
<path d="M46.0276 41.9792C46.0276 44.7576 44.9246 47.4222 42.9615 49.3867C40.9983 51.3514 38.3356 52.455 35.5593 52.455C32.783 52.455 30.1203 51.3514 28.1572 49.3867C26.1939 47.4222 25.0911 44.7576 25.0911 41.9792C25.0911 40.6035 25.3618 39.2413 25.8878 37.9703C26.4139 36.6994 27.185 35.5446 28.1572 34.5717C29.1292 33.599 30.2832 32.8274 31.5533 32.3009C32.8233 31.7744 34.1846 31.5034 35.5593 31.5034C36.9341 31.5034 38.2953 31.7744 39.5654 32.3009C40.8354 32.8274 41.9894 33.599 42.9615 34.5717C43.9335 35.5446 44.7046 36.6994 45.2307 37.9703C45.7569 39.2413 46.0276 40.6035 46.0276 41.9792ZM40.6191 41.0343C40.4956 40.3748 40.2433 39.746 39.876 39.1842C39.509 38.6221 39.0343 38.138 38.4792 37.7592C37.9242 37.3805 37.2994 37.1147 36.6411 36.9768C35.9826 36.8387 35.3031 36.8316 34.6415 36.9555C33.3052 37.2058 32.1226 37.9749 31.3539 39.0937C30.5851 40.2125 30.2931 41.5895 30.5422 42.9214C30.6656 43.581 30.9182 44.2097 31.2852 44.7716C31.6525 45.3335 32.127 45.8176 32.6822 46.1964C33.2373 46.5751 33.8618 46.8411 34.5204 46.979C35.1789 47.1169 35.8583 47.1242 36.52 47.0002C37.8562 46.75 39.0387 45.9809 39.8075 44.862C40.5762 43.7431 40.8682 42.3663 40.6191 41.0343Z" fill="#FEFEFE"/>
</svg>
