<svg width="1439" height="356" viewBox="0 0 1439 356" fill="none" xmlns="http://www.w3.org/2000/svg">
<path fill-rule="evenodd" clip-rule="evenodd" d="M0 240.038H66.5V176.231H134.5V279.104H170.5C172.427 268.092 171.376 258.314 170.302 248.317C169.136 237.464 167.942 226.353 170.5 213.126C172.653 201.994 176.721 194.184 180.845 186.266C185.259 177.791 189.737 169.192 192 156.264V37.3297H244V126.313C244 126.313 267.031 173.397 274 205.313C283.928 250.781 274 323.813 274 323.813H297V37.3297L321.5 0L366.5 19.967V341.61H385V323.813H392.5V220.071C392.5 220.071 400.215 206.522 409.5 205.313C415.432 204.541 418.486 208.23 421.729 212.146C424.525 215.522 427.46 219.068 432.5 220.071C438.59 221.284 448.5 220.071 448.5 220.071C448.5 220.071 445.97 210.642 448.5 205.313C451.762 198.443 455.754 204.345 461.044 212.165C465.829 219.238 471.674 227.879 479 230.055C491.193 233.677 512 230.055 512 230.055C512 230.055 519.174 224.619 522 220.071C525.056 215.154 523.521 210.452 521.987 205.754C520.449 201.046 518.913 196.34 522 191.423C525.831 185.321 532.823 184.396 539.941 183.456C546.721 182.559 553.616 181.648 558 176.231C560.441 173.215 560.612 169.792 560.775 166.526C560.975 162.524 561.163 158.758 565.5 156.264C570.923 153.145 575.878 154.138 581.686 155.302C583.375 155.64 585.135 155.993 587 156.264C598.481 157.929 605.122 160.261 614.5 166.247C618.804 168.995 621.093 172.224 623.354 175.415C625.782 178.839 628.177 182.219 633 184.912C636.008 186.592 639.748 186.742 643.224 186.881C648.034 187.075 652.338 187.247 653.5 191.423C654.413 194.704 651.589 196.576 648.641 198.529C645.922 200.331 643.098 202.202 643 205.313C642.786 212.085 653.5 220.071 653.5 220.071L666.5 230.055H699.5C699.5 230.055 719.428 193.343 725.5 205.313V220.071L747 230.055C747 230.055 746.014 209.041 757 205.313C757 205.313 766.226 203.524 771.5 205.313C779.068 207.881 779.548 213.95 780.084 220.718C780.325 223.773 780.578 226.972 781.5 230.055C790.429 259.917 781.5 309.055 781.5 309.055L865 87.2473H951.5L865 341.61H1071.5L983.5 87.2473H1071.5L1159.5 323.813V156.264H1132V128.918L1150.5 115.027V97.6648L1159.5 75.0934L1179.5 97.6648V115.027L1189.5 128.918V156.264H1171V263.912H1439V355.5H0V240.038ZM669 277.368V342.912H710V277.368C710 277.368 697.75 267.029 688.5 267.384C679.951 267.713 669 277.368 669 277.368ZM465.5 277.368V342.912H505.5V277.368C505.5 277.368 494.23 267.384 485.5 267.384C476.77 267.384 465.5 277.368 465.5 277.368ZM409 297.335V342.912H438V297.335H409ZM562.5 342.912V281.275C562.5 281.275 578 267.385 587 267.384C596 267.384 610 277.368 610 277.368V342.912H562.5ZM737.5 342.912V297.335H766.5V342.912H737.5Z" fill="#04D0B5"/>
</svg>
