<svg width="1440" height="619" viewBox="0 0 1440 619" fill="none" xmlns="http://www.w3.org/2000/svg">
<path d="M224.214 320.152C115.693 319.867 89.2743 235.573 0 288.109V614.175C107.633 643.875 116.541 527.957 224.214 498.361C356.874 461.898 441.462 486.707 579.917 472.903C744.055 456.538 837.68 451.318 997.995 417.157C1118.06 391.574 1192.22 386.646 1299.57 334.198C1366.48 301.506 1401.47 289.524 1441 233.114V0C1397.7 11.8513 1367.84 77.1564 1299.57 112.095C1178.74 173.936 1087.63 162.392 952.115 195.493C806.554 231.049 579.917 288.109 579.917 288.109C579.917 288.109 363.899 320.519 224.214 320.152Z" fill="white"/>
</svg>
